<svg xmlns="http://www.w3.org/2000/svg" version="1.1" xmlns:xlink="http://www.w3.org/1999/xlink" xmlns:svgjs="http://svgjs.dev/svgjs" width="1000" height="1000" viewBox="0 0 1000 1000"><rect width="1000" height="1000" fill="#ffffff"></rect><g transform="matrix(0.7,0,0,0.7,149.5757576537638,428.70343314844615)"><svg viewBox="0 0 396 81" data-background-color="#ffffff" preserveAspectRatio="xMidYMid meet" height="204" width="1000" xmlns="http://www.w3.org/2000/svg" xmlns:xlink="http://www.w3.org/1999/xlink"><g id="tight-bounds" transform="matrix(1,0,0,1,0.24000004412926046,-0.05867006319425627)"><svg viewBox="0 0 395.52 81.11734012638848" height="81.11734012638848" width="395.52"><g><svg viewBox="0 0 523.7706271251019 107.42030771824102" height="81.11734012638848" width="395.52"><g transform="matrix(1,0,0,1,0,31.651241255911284)"><svg viewBox="0 0 395.52 44.11782520641845" height="44.11782520641845" width="395.52"><g id="textblocktransform"><svg viewBox="0 0 395.52 44.11782520641845" height="44.11782520641845" width="395.52" id="textblock"><g><svg viewBox="0 0 395.52 44.11782520641845" height="44.11782520641845" width="395.52"><g transform="matrix(1,0,0,1,0,0)"><svg width="395.52" viewBox="-4.849999904632568 -35.79999923706055 322.7300109863281 35.79999923706055" height="44.11782520641845" data-palette-color="#b9bcff"><g class="undefined-text-0" data-fill-palette-color="primary" id="text-0"><path d="M36.15-2.15L41.95-2.15 41.95 0 30.8 0 27.3-7.95 9.8-7.95 6.3 0-4.85 0-4.85-2.15 0.95-2.15 15.4-34.95 21.7-34.95 36.15-2.15ZM12.2-13.4L24.9-13.4 18.55-27.8 12.2-13.4ZM65.1-2.15L75.5-2.15 75.5 0 37.1 0 37.1-2.15 47.45-2.15Q41.5-6.3 41.5-15.3L41.5-15.3 41.5-34.95 47.4-34.95 47.4-15.55Q47.4-10.75 49.8-7.95 52.2-5.15 56.3-5.15 60.4-5.15 62.8-7.95 65.2-10.75 65.2-15.55L65.2-15.55 65.2-34.95 71.1-34.95 71.1-15.3Q71.1-6.25 65.1-2.15L65.1-2.15ZM93.55-2.15L105.7-2.15 105.7 0 75.5 0 75.5-2.15 87.65-2.15 87.65-29.55 77.05-29.55 77.05-34.95 104.15-34.95 104.15-29.55 93.55-29.55 93.55-2.15ZM136.24-2.15L147.69-2.15 147.69 0 105.69 0 105.69-2.15 117.14-2.15Q113.04-4.5 110.67-8.6 108.29-12.7 108.29-17.75L108.29-17.75Q108.29-25.45 113.59-30.63 118.89-35.8 126.69-35.8 134.49-35.8 139.79-30.63 145.09-25.45 145.09-17.75L145.09-17.75Q145.09-12.75 142.72-8.6 140.34-4.45 136.24-2.15L136.24-2.15ZM135.47-26.7Q131.89-30.4 126.69-30.4 121.49-30.4 117.92-26.7 114.34-23 114.34-17.73 114.34-12.45 117.92-8.75 121.49-5.05 126.69-5.05 131.89-5.05 135.47-8.75 139.04-12.45 139.04-17.73 139.04-23 135.47-26.7ZM158.44-2.15L181.89-2.15 181.89 0 147.69 0 147.69-2.15 152.54-2.15 152.54-34.95 164.54-34.95Q172.49-34.95 176.14-31.9 179.79-28.85 179.79-22.5 179.79-16.15 176.06-13.2 172.34-10.25 164.64-10.25L164.64-10.25 158.44-10.25 158.44-2.15ZM165.29-15.6Q170.19-15.6 171.97-17.48 173.74-19.35 173.74-22.98 173.74-26.6 171.49-28.1 169.24-29.6 164.44-29.6L164.44-29.6 158.44-29.6 158.44-15.6 165.29-15.6ZM214.69-2.15L219.54-2.15 219.54 0 208.74 0 200.39-11.75 192.64-11.75 192.64 0 181.89 0 181.89-2.15 186.74-2.15 186.74-34.95 199.74-34.95Q207.74-34.95 211.19-32.25 214.64-29.55 214.64-23.6L214.64-23.6Q214.64-14.95 207.09-12.7L207.09-12.7 214.69-2.15ZM199.99-17.1Q204.99-17.1 206.79-18.65 208.59-20.2 208.59-23.63 208.59-27.05 206.74-28.33 204.89-29.6 200.14-29.6L200.14-29.6 192.64-29.6 192.64-17.1 199.99-17.1ZM218.28-2.15L223.13-2.15 223.13-34.95 229.03-34.95 229.03-2.15 233.88-2.15 233.88 0 218.28 0 218.28-2.15ZM278.18-2.15L283.03-2.15 283.03 0 272.28 0 272.28-27.3 260.08-3.05 256.78-3.05 244.63-27.3 244.63 0 233.88 0 233.88-2.15 238.73-2.15 238.73-34.95 247.93-34.95 258.48-13 269.03-34.95 278.18-34.95 278.18-2.15ZM283.03-2.15L287.88-2.15 287.88-34.95 312.43-34.95 312.43-29.4 293.78-29.4 293.78-20.15 310.53-20.15 310.53-14.9 293.78-14.9 293.78-5.55 313.03-5.55 313.03-2.15 317.88-2.15 317.88 0 283.03 0 283.03-2.15Z" fill="#000000" data-fill-palette-color="primary"></path></g></svg></g></svg></g></svg></g></svg></g><g transform="matrix(1,0,0,1,416.3503194068609,0)"><svg viewBox="0 0 107.42030771824102 107.42030771824102" height="107.42030771824102" width="107.42030771824102"><g><svg></svg></g><g id="icon-0"><svg viewBox="0 0 107.42030771824102 107.42030771824102" height="107.42030771824102" width="107.42030771824102"><g><path d="M0 53.71c0-29.663 24.047-53.71 53.71-53.71 29.663 0 53.71 24.047 53.71 53.71 0 29.663-24.047 53.71-53.71 53.71-29.663 0-53.71-24.047-53.71-53.71zM53.71 103.442c27.466 0 49.732-22.266 49.732-49.732 0-27.466-22.266-49.732-49.732-49.731-27.466 0-49.732 22.266-49.731 49.731 0 27.466 22.266 49.732 49.731 49.732z" data-fill-palette-color="accent" fill="#000000" stroke="transparent"></path></g><g transform="matrix(1,0,0,1,22.6281866779195,29.79599004481565)"><svg viewBox="0 0 62.16393436240202 47.82832762860972" height="47.82832762860972" width="62.16393436240202"><g><svg xmlns="http://www.w3.org/2000/svg" data-name="Layer 1" viewBox="9 18.449996948242188 82 63.090003967285156" x="0" y="0" height="47.82832762860972" width="62.16393436240202" class="icon-s-0" data-fill-palette-color="accent" id="s-0"><path d="M86.19 73.38H13.81a1 1 0 0 1-1-1V39.23a1 1 0 0 1 2 0V71.38H85.19V39.23a1 1 0 0 1 2 0V72.38A1 1 0 0 1 86.19 73.38Z" fill="#000000" data-fill-palette-color="accent"></path><path d="M66.87 59.64H33.13a1 1 0 0 1-1-1V53a1 1 0 0 1 1-1H66.87a1 1 0 0 1 1 1v5.68A1 1 0 0 1 66.87 59.64Zm-32.74-2H65.87V54H34.13Z" fill="#000000" data-fill-palette-color="accent"></path><path d="M28 62.48H13.81a1 1 0 1 1 0-2H27V51.12H13.81a1 1 0 1 1 0-2H28a1 1 0 0 1 1 1V61.48A1 1 0 0 1 28 62.48Z" fill="#000000" data-fill-palette-color="accent"></path><path d="M86.19 62.48H71.77a1 1 0 0 1-1-1V50.12a1 1 0 0 1 1-1H86.19a1 1 0 1 1 0 2H72.77v9.37H86.19a1 1 0 0 1 0 2Z" fill="#000000" data-fill-palette-color="accent"></path><path d="M28.1 81.54H13.81a1 1 0 0 1-1-1V72.38a1 1 0 0 1 2 0v7.17H27.1V72.38a1 1 0 0 1 2 0v8.17A1 1 0 0 1 28.1 81.54Z" fill="#000000" data-fill-palette-color="accent"></path><path d="M71.77 81.54a1 1 0 0 1-1-1V72.38a1 1 0 0 1 2 0v7.17l12.42 0V72.38a1 1 0 0 1 2 0v8.14a1 1 0 0 1-1 1l-14.42 0Z" fill="#000000" data-fill-palette-color="accent"></path><path d="M86.19 40.23H13.81A1 1 0 0 1 13 38.68L26 18.9a1 1 0 0 1 0.83-0.45h46a1 1 0 0 1 0.83 0.44L87 38.67a1 1 0 0 1-0.83 1.56Zm-70.52-2H84.31l-12-17.77H27.41Z" fill="#000000" data-fill-palette-color="accent"></path><path d="M90 36.56H83.71a1 1 0 0 1 0-2H89V29.69H79.08a1 1 0 0 1 0-2H90a1 1 0 0 1 1 1v6.87A1 1 0 0 1 90 36.56Z" fill="#000000" data-fill-palette-color="accent"></path><path d="M16.23 36.56H10a1 1 0 0 1-1-1V28.69a1 1 0 0 1 1-1H20.77a1 1 0 0 1 0 2H11v4.87h5.23a1 1 0 0 1 0 2Z" fill="#000000" data-fill-palette-color="accent"></path></svg></g></svg></g></svg></g></svg></g></svg></g><defs></defs></svg><rect width="395.52" height="81.11734012638848" fill="none" stroke="none" visibility="hidden"></rect></g></svg></g></svg>